<svg width="138" height="159" viewBox="0 0 138 159" fill="none" xmlns="http://www.w3.org/2000/svg">
<path d="M76.153 0.63208C109.778 0.63208 137.14 27.8496 137.14 61.3105C137.14 94.7711 109.778 122.03 76.153 122.03C64.753 122.03 54.1067 118.834 44.9641 113.389C43.841 114.707 42.3829 116.437 40.6686 118.51C37.0967 122.828 32.5041 128.423 28.0001 133.966C18.992 145.051 10.2787 155.895 10.2787 155.895C9.86398 156.491 9.33055 156.996 8.71154 157.378C8.09253 157.76 7.40117 158.012 6.68041 158.117C5.95965 158.222 5.2249 158.178 4.5218 157.988C3.81869 157.799 3.16227 157.467 2.59331 157.015C2.02435 156.562 1.55501 155.998 1.21445 155.358C0.87389 154.717 0.669384 154.013 0.613648 153.29C0.557912 152.567 0.652137 151.841 0.890458 151.156C1.12878 150.471 1.50611 149.842 1.999 149.308C1.999 149.308 10.7336 138.447 19.7619 127.337C24.2761 121.783 28.8629 116.162 32.472 111.798C34.0003 109.95 35.2172 108.483 36.3213 107.173C23.3829 96.0277 15.1345 79.6212 15.1344 61.3105C15.1345 27.8496 42.5277 0.63208 76.153 0.63208ZM76.153 11.2048C48.2696 11.2048 25.7694 33.5636 25.7694 61.3105C25.7694 89.0573 48.2696 111.447 76.153 111.447C104.036 111.447 126.547 89.0573 126.547 61.3105C126.547 33.5636 104.036 11.2048 76.153 11.2048Z" fill="#121212"/>
</svg>
